<svg width="152" height="255" viewBox="0 0 152 255" fill="none" xmlns="http://www.w3.org/2000/svg">
<mask id="path-1-outside-1_490_106" maskUnits="userSpaceOnUse" x="-3.75128" y="111.77" width="76.5139" height="71.5208" fill="black">
<rect fill="white" x="-3.75128" y="111.77" width="76.5139" height="71.5208"/>
<path d="M22.4812 169.637C18.7015 172.865 12.0229 173.416 8.79483 169.637C5.5667 165.857 7.01145 159.177 10.7911 155.949C14.5707 152.721 17.8354 155.585 21.0635 159.365C24.2917 163.145 26.2608 166.408 22.4812 169.637Z"/>
<path d="M52.9463 116L68.2473 133.915L29.4666 167.037L14.1656 149.122L52.9463 116Z"/>
</mask>
<path d="M22.4812 169.637C18.7015 172.865 12.0229 173.416 8.79483 169.637C5.5667 165.857 7.01145 159.177 10.7911 155.949C14.5707 152.721 17.8354 155.585 21.0635 159.365C24.2917 163.145 26.2608 166.408 22.4812 169.637Z" fill="#FEC29D"/>
<path d="M52.9463 116L68.2473 133.915L29.4666 167.037L14.1656 149.122L52.9463 116Z" fill="#9FD0DE"/>
<path d="M52.9463 116L55.2275 114.052C54.1515 112.792 52.2578 112.643 50.9979 113.719L52.9463 116ZM68.2473 133.915L70.1956 136.196C71.4555 135.12 71.6045 133.227 70.5285 131.967L68.2473 133.915ZM29.4666 167.037L27.1854 168.985C28.2614 170.245 30.155 170.394 31.4149 169.318L29.4666 167.037ZM14.1656 149.122L12.2172 146.841C10.9574 147.917 10.8083 149.81 11.8844 151.07L14.1656 149.122ZM20.5328 167.355C19.2057 168.489 17.265 169.214 15.35 169.266C13.4377 169.317 11.945 168.706 11.076 167.688L6.51361 171.585C8.87277 174.347 12.3334 175.349 15.5124 175.263C18.6886 175.177 21.977 174.012 24.4295 171.918L20.5328 167.355ZM11.076 167.688C10.1954 166.657 9.79555 165.025 10.1231 163.086C10.4503 161.149 11.4464 159.335 12.7394 158.23L8.84275 153.668C6.35609 155.792 4.74004 158.931 4.20697 162.086C3.67429 165.239 4.16615 168.836 6.51361 171.585L11.076 167.688ZM12.7394 158.23C13.3515 157.708 13.7524 157.589 13.9594 157.56C14.1601 157.531 14.437 157.549 14.8716 157.751C15.9034 158.229 17.1526 159.405 18.7823 161.313L23.3448 157.417C21.7464 155.545 19.7491 153.399 17.3967 152.308C16.1392 151.724 14.6894 151.395 13.1141 151.619C11.545 151.843 10.1205 152.577 8.84275 153.668L12.7394 158.23ZM18.7823 161.313C20.4268 163.239 21.2588 164.512 21.49 165.436C21.579 165.791 21.5515 166.003 21.4873 166.18C21.4121 166.388 21.1957 166.789 20.5328 167.355L24.4295 171.918C25.6565 170.87 26.6112 169.653 27.129 168.222C27.6577 166.762 27.6449 165.316 27.3105 163.979C26.695 161.519 24.9284 159.271 23.3448 157.417L18.7823 161.313ZM50.6651 117.948L65.9661 135.864L70.5285 131.967L55.2275 114.052L50.6651 117.948ZM66.2989 131.634L27.5182 164.756L31.4149 169.318L70.1956 136.196L66.2989 131.634ZM31.7478 165.089L16.4468 147.174L11.8844 151.07L27.1854 168.985L31.7478 165.089ZM16.1139 151.403L54.8946 118.281L50.9979 113.719L12.2172 146.841L16.1139 151.403Z" fill="#07100E" mask="url(#path-1-outside-1_490_106)"/>
<mask id="path-3-outside-2_490_106" maskUnits="userSpaceOnUse" x="78.7685" y="113.436" width="77.2743" height="72.1702" fill="black">
<rect fill="white" x="78.7685" y="113.436" width="77.2743" height="72.1702"/>
<path d="M140.74 157.615C144.52 160.843 146.664 168.22 143.435 172C140.207 175.78 132.83 174.53 129.05 171.302C125.27 168.074 127.939 165.508 131.167 161.729C134.395 157.949 136.96 154.386 140.74 157.615Z"/>
<path d="M82.998 135.915L98.299 118L137.08 151.122L121.779 169.037L82.998 135.915Z"/>
</mask>
<path d="M140.74 157.615C144.52 160.843 146.664 168.22 143.435 172C140.207 175.78 132.83 174.53 129.05 171.302C125.27 168.074 127.939 165.508 131.167 161.729C134.395 157.949 136.96 154.386 140.74 157.615Z" fill="#FEC29D"/>
<path d="M82.998 135.915L98.299 118L137.08 151.122L121.779 169.037L82.998 135.915Z" fill="#9FD0DE"/>
<path d="M82.998 135.915L80.7168 133.967C79.6408 135.227 79.7898 137.12 81.0497 138.196L82.998 135.915ZM98.299 118L100.247 115.719C98.9875 114.643 97.0939 114.792 96.0178 116.052L98.299 118ZM137.08 151.122L139.361 153.07C140.437 151.81 140.288 149.917 139.028 148.841L137.08 151.122ZM121.779 169.037L119.83 171.318C121.09 172.394 122.984 172.245 124.06 170.985L121.779 169.037ZM138.792 159.896C140.106 161.018 141.299 163.054 141.787 165.252C142.286 167.495 141.912 169.165 141.154 170.052L145.717 173.948C148.187 171.056 148.355 167.147 147.644 163.949C146.923 160.706 145.154 157.439 142.688 155.333L138.792 159.896ZM141.154 170.052C140.421 170.911 138.929 171.489 136.717 171.291C134.549 171.097 132.366 170.188 130.998 169.021L127.102 173.583C129.514 175.643 132.909 176.974 136.182 177.267C139.411 177.556 143.222 176.869 145.717 173.948L141.154 170.052ZM130.998 169.021C130.313 168.436 130.208 168.121 130.201 168.097C130.198 168.089 130.198 168.091 130.199 168.079C130.201 168.057 130.21 167.978 130.271 167.822C130.409 167.472 130.713 166.969 131.303 166.216C131.897 165.46 132.585 164.688 133.448 163.677L128.885 159.78C128.135 160.659 127.279 161.625 126.582 162.514C125.882 163.406 125.15 164.454 124.689 165.622C124.202 166.859 123.99 168.31 124.464 169.855C124.918 171.337 125.897 172.554 127.102 173.583L130.998 169.021ZM133.448 163.677C134.308 162.67 134.996 161.831 135.696 161.074C136.391 160.322 136.923 159.849 137.35 159.579C137.55 159.453 137.685 159.398 137.764 159.374C137.833 159.353 137.866 159.355 137.882 159.356C137.89 159.356 138.176 159.37 138.792 159.896L142.688 155.333C141.414 154.245 139.962 153.493 138.325 153.372C136.679 153.25 135.268 153.797 134.143 154.508C133.053 155.197 132.102 156.123 131.29 157.001C130.483 157.873 129.64 158.897 128.885 159.78L133.448 163.677ZM85.2793 137.863L100.58 119.948L96.0178 116.052L80.7168 133.967L85.2793 137.863ZM96.3507 120.281L135.131 153.403L139.028 148.841L100.247 115.719L96.3507 120.281ZM134.799 149.173L119.498 167.089L124.06 170.985L139.361 153.07L134.799 149.173ZM123.727 166.756L84.9464 133.634L81.0497 138.196L119.83 171.318L123.727 166.756Z" fill="#07100E" mask="url(#path-3-outside-2_490_106)"/>
<path d="M68.8037 110.5H80.8037C97.3723 110.5 110.804 123.931 110.804 140.5V174C110.804 174.828 110.132 175.5 109.304 175.5H40.3037C39.4753 175.5 38.8037 174.828 38.8037 174V140.5C38.8037 123.931 52.2352 110.5 68.8037 110.5Z" fill="#9FD0DE" stroke="#07100E" stroke-width="3"/>
<circle cx="117.305" cy="78" r="14.5" fill="#F8C399" stroke="#07100E" stroke-width="3"/>
<path d="M118.305 77.5H122.805M122.805 77.5L124.305 74.5M122.805 77.5L124.305 80" stroke="#07100E" stroke-width="2" stroke-linecap="round" stroke-linejoin="round"/>
<circle cx="29.3047" cy="77" r="14.5" fill="#F8C399" stroke="#07100E" stroke-width="3"/>
<path d="M28.3047 75.5H23.8047M23.8047 75.5L22.3047 78.5M23.8047 75.5L22.3047 73" stroke="#07100E" stroke-width="2" stroke-linecap="round" stroke-linejoin="round"/>
<path d="M30.3037 40.5C29.5062 40.5 28.8481 41.124 28.8058 41.9204L26.9992 75.9204C26.9964 75.972 26.9964 76.0236 26.999 76.0752L27.3279 82.6289C28.1958 99.9233 42.4709 113.5 59.787 113.5H86.6817C103.503 113.5 117.357 100.283 118.147 83.48L118.495 76.0705C118.498 76.0221 118.498 75.9737 118.495 75.9254L116.802 41.9254C116.762 41.127 116.103 40.5 115.304 40.5H30.3037Z" fill="#FAC498" stroke="#07100E" stroke-width="3" stroke-linejoin="round"/>
<rect x="81.3037" y="59" width="15" height="4" rx="2" fill="#07100E"/>
<rect x="48.3037" y="59" width="15" height="4" rx="2" fill="#07100E"/>
<path d="M74.6846 45.0989C85.0846 69.4989 97.0179 57.9323 101.685 49.0989C108.778 69.7024 114.736 66.5374 121.997 59.5C125.186 51.5 134.617 43.5835 127.497 25.5C123.636 15.6935 110.428 13.1899 100.506 11.9324C96.8533 11.4695 93.3762 11.3807 90.5061 11.5153C89.2017 9.38705 87.4908 7.67515 85.5059 6.31285C75.9255 -0.262277 59.9613 1.3062 52.5059 3.51519C41.0059 6.51519 19.7846 21.8989 22.1846 49.0989C24.5846 76.2989 39.5179 60.4323 46.6846 49.0989C57.0846 72.6989 69.6846 56.2656 74.6846 45.0989Z" fill="#0C211D" stroke="#0C211D" stroke-width="3" stroke-linecap="round" stroke-linejoin="round"/>
<circle cx="50.3047" cy="92" r="10" fill="#FEA086"/>
<circle cx="57.8047" cy="72.5" r="5.5" fill="#07100E"/>
<circle cx="86.8047" cy="72.5" r="5.5" fill="#07100E"/>
<circle cx="92.8047" cy="92.5" r="9.5" fill="#FEA086"/>
<path d="M66.8047 93L66.0547 94.75M65.3047 96.5L66.0547 94.75M66.0547 94.75C68.638 96.5 74.5047 98.95 77.3047 94.75" stroke="#07100E" stroke-linecap="round" stroke-linejoin="round"/>
<rect x="42.8037" y="175.5" width="30" height="62" fill="#164F6D" stroke="#07100E" stroke-width="3" stroke-linejoin="round"/>
<rect x="77.8037" y="175.5" width="30" height="62" fill="#164F6D" stroke="#07100E" stroke-width="3" stroke-linejoin="round"/>
<path d="M70.3037 236H45.4214C37.0721 236 30.3037 242.768 30.3037 251.118C30.3037 252.71 31.5942 254 33.1861 254H70.3037C71.9606 254 73.3037 252.657 73.3037 251V239C73.3037 237.343 71.9606 236 70.3037 236Z" fill="white" stroke="#07100E" stroke-width="2" stroke-linejoin="round"/>
<path d="M32.3037 247H31.3037V248V250C31.3037 251.657 32.6469 253 34.3037 253H70.8037C71.6321 253 72.3037 252.328 72.3037 251.5V248V247H71.3037H32.3037Z" fill="#2E6E6E" stroke="#07100E" stroke-width="2"/>
<path d="M71.8037 242V241.5H71.3037H64.3037C61.8184 241.5 59.8037 243.515 59.8037 246H60.3037V246.5H71.3037H71.8037V246V242Z" fill="#2E6E6E" stroke="#07100E"/>
<path d="M47.8037 239.5H37.8537C38.0854 238.359 39.0942 237.5 40.3037 237.5H47.8037V239.5Z" fill="#D9D9D9" stroke="#07100E"/>
<path d="M44.8037 241.5H34.8537C35.0854 240.359 36.0942 239.5 37.3037 239.5H44.8037V241.5Z" fill="#D9D9D9" stroke="#07100E"/>
<path d="M80.3037 236H105.186C113.535 236 120.304 242.768 120.304 251.118C120.304 252.71 119.013 254 117.421 254H80.3037C78.6469 254 77.3037 252.657 77.3037 251V239C77.3037 237.343 78.6469 236 80.3037 236Z" fill="white" stroke="#07100E" stroke-width="2" stroke-linejoin="round"/>
<path d="M118.304 247H119.304V248V250C119.304 251.657 117.961 253 116.304 253H79.8037C78.9753 253 78.3037 252.328 78.3037 251.5V248V247H79.3037H118.304Z" fill="#2E6E6E" stroke="#07100E" stroke-width="2"/>
<path d="M78.8037 242V241.5H79.3037H86.3037C88.789 241.5 90.8037 243.515 90.8037 246H90.3037V246.5H79.3037H78.8037V246V242Z" fill="#2E6E6E" stroke="#07100E"/>
<path d="M102.804 239.5H112.754C112.522 238.359 111.513 237.5 110.304 237.5H102.804V239.5Z" fill="#D9D9D9" stroke="#07100E"/>
<path d="M105.804 241.5H115.754C115.522 240.359 114.513 239.5 113.304 239.5H105.804V241.5Z" fill="#D9D9D9" stroke="#07100E"/>
<rect x="43.3037" y="222" width="29" height="14" rx="2" fill="#366D94" stroke="#07100E" stroke-width="2" stroke-linejoin="round"/>
<rect x="43.8037" y="229.5" width="11" height="6" fill="#276E6A" stroke="#07100E" stroke-linejoin="round"/>
<rect x="1" y="-1" width="29" height="14" rx="2" transform="matrix(-1 0 0 1 108.304 223)" fill="#366D94" stroke="#07100E" stroke-width="2" stroke-linejoin="round"/>
<rect x="0.5" y="-0.5" width="11" height="6" transform="matrix(-1 0 0 1 107.304 230)" fill="#276E6A" stroke="#07100E" stroke-linejoin="round"/>
<mask id="path-35-outside-3_490_106" maskUnits="userSpaceOnUse" x="98.1731" y="174.892" width="10.5507" height="10.6617" fill="black">
<rect fill="white" x="98.1731" y="174.892" width="10.5507" height="10.6617"/>
<path d="M99.9501 175.95C99.7565 175.753 99.4399 175.75 99.243 175.944V175.944C99.046 176.137 99.0433 176.454 99.2368 176.651L106.487 184.029C106.681 184.226 106.997 184.228 107.194 184.035V184.035C107.391 183.841 107.394 183.525 107.2 183.328L99.9501 175.95Z"/>
</mask>
<path d="M99.9501 175.95C99.7565 175.753 99.4399 175.75 99.243 175.944V175.944C99.046 176.137 99.0433 176.454 99.2368 176.651L106.487 184.029C106.681 184.226 106.997 184.228 107.194 184.035V184.035C107.391 183.841 107.394 183.525 107.2 183.328L99.9501 175.95Z" fill="#D9D9D9"/>
<path d="M99.5996 175.593L98.8864 176.294L99.5996 175.593ZM106.838 184.385L107.551 183.684L106.838 184.385ZM107.194 184.035C107.785 183.454 107.793 182.505 107.213 181.914L101.364 175.962C100.784 175.371 99.8339 175.363 99.243 175.944C99.1484 176.037 99.0946 176.163 99.0935 176.296C99.0923 176.429 99.1439 176.556 99.2368 176.651L99.2368 176.651L98.8864 176.294L106.487 184.029C106.58 184.123 106.707 184.177 106.839 184.178C106.972 184.179 107.1 184.128 107.194 184.035L107.194 184.035ZM99.243 175.944C98.6521 176.524 98.6438 177.474 99.2245 178.065L105.073 184.016C105.654 184.607 106.603 184.616 107.194 184.035C107.289 183.942 107.343 183.815 107.344 183.683C107.345 183.55 107.293 183.422 107.2 183.328L99.9501 175.95L99.5996 175.593L99.9501 175.95C99.8571 175.855 99.7304 175.802 99.5978 175.8C99.4652 175.799 99.3376 175.851 99.243 175.944L99.243 175.944Z" fill="#07100E" mask="url(#path-35-outside-3_490_106)"/>
<mask id="path-37-outside-4_490_106" maskUnits="userSpaceOnUse" x="42.1304" y="175.299" width="10.5507" height="10.6617" fill="black">
<rect fill="white" x="42.1304" y="175.299" width="10.5507" height="10.6617"/>
<path d="M51.6173 177.057C51.8109 176.86 51.8081 176.544 51.6111 176.35V176.35C51.4142 176.157 51.0976 176.159 50.9041 176.356L43.6538 183.734C43.4602 183.931 43.463 184.248 43.6599 184.441V184.441C43.8569 184.635 44.1735 184.632 44.367 184.435L51.6173 177.057Z"/>
</mask>
<path d="M51.6173 177.057C51.8109 176.86 51.8081 176.544 51.6111 176.35V176.35C51.4142 176.157 51.0976 176.159 50.9041 176.356L43.6538 183.734C43.4602 183.931 43.463 184.248 43.6599 184.441V184.441C43.8569 184.635 44.1735 184.632 44.367 184.435L51.6173 177.057Z" fill="#D9D9D9"/>
<path d="M51.9678 176.701L51.2545 176L51.9678 176.701ZM43.3033 184.091L44.0166 184.792L43.3033 184.091ZM43.6599 184.441C44.2508 185.022 45.2005 185.014 45.7812 184.423L51.6297 178.471C52.2103 177.881 52.202 176.931 51.6111 176.35C51.5166 176.257 51.3889 176.206 51.2563 176.207C51.1237 176.208 50.997 176.262 50.9041 176.356L50.9041 176.356L51.2545 176L43.6538 183.734C43.5608 183.829 43.5092 183.957 43.5104 184.089C43.5116 184.222 43.5653 184.349 43.6599 184.441L43.6599 184.441ZM51.6111 176.35C51.0203 175.77 50.0706 175.778 49.4899 176.369L43.6414 182.32C43.0608 182.911 43.0691 183.861 43.6599 184.441C43.7545 184.534 43.8821 184.586 44.0147 184.585C44.1474 184.584 44.2741 184.53 44.367 184.435L51.6173 177.057L51.9678 176.701L51.6173 177.057C51.7103 176.963 51.7618 176.835 51.7607 176.702C51.7595 176.57 51.7057 176.443 51.6111 176.35L51.6111 176.35Z" fill="#07100E" mask="url(#path-37-outside-4_490_106)"/>
<path d="M53.5494 124C52.1414 124 51 125.119 51 126.5C51 127.881 52.1414 129 53.5494 129C54.9574 129 56.0987 127.881 56.0987 126.5C56.0987 125.119 54.9574 124 53.5493 124L53.5494 124V124ZM54.7185 127.606C54.6727 127.679 54.5749 127.702 54.5 127.658C53.9013 127.299 53.1478 127.218 52.2604 127.416C52.1749 127.436 52.0897 127.383 52.0702 127.299C52.0506 127.215 52.104 127.132 52.1897 127.113C53.1608 126.895 53.9938 126.989 54.6658 127.391C54.7407 127.436 54.7644 127.532 54.7185 127.606L54.7185 127.606V127.606ZM55.0305 126.925C54.9729 127.017 54.8505 127.046 54.7571 126.989C54.072 126.576 53.0273 126.457 52.2168 126.698C52.1116 126.729 52.0006 126.671 51.9687 126.568C51.9371 126.465 51.9963 126.356 52.1013 126.325C53.0271 126.049 54.1781 126.183 54.965 126.657C55.0585 126.714 55.088 126.834 55.0305 126.925L55.0305 126.925ZM55.0573 126.216C54.2355 125.738 52.88 125.694 52.0956 125.927C51.9696 125.965 51.8364 125.895 51.7982 125.771C51.76 125.648 51.8311 125.517 51.9571 125.48C52.8577 125.212 54.3547 125.263 55.3007 125.814C55.414 125.88 55.4511 126.023 55.384 126.134C55.317 126.246 55.1703 126.282 55.0573 126.216H55.0573V126.216ZM57.936 126.308C57.4958 126.205 57.4174 126.133 57.4174 125.981C57.4174 125.838 57.5551 125.741 57.7599 125.741C57.9584 125.741 58.1552 125.814 58.3615 125.965C58.3678 125.97 58.3756 125.972 58.3833 125.97C58.391 125.969 58.3978 125.965 58.4023 125.959L58.6173 125.662C58.6261 125.65 58.6237 125.633 58.6118 125.623C58.3662 125.43 58.0896 125.336 57.7664 125.336C57.2911 125.336 56.9592 125.616 56.9592 126.016C56.9592 126.445 57.2455 126.597 57.7404 126.714C58.1616 126.81 58.2327 126.889 58.2327 127.032C58.2327 127.19 58.0889 127.288 57.8576 127.288C57.6007 127.288 57.3911 127.203 57.1567 127.004C57.1509 126.999 57.1429 126.997 57.1355 126.997C57.1278 126.998 57.1207 127.001 57.1157 127.007L56.8747 127.288C56.8646 127.3 56.8659 127.317 56.8776 127.327C57.1504 127.566 57.4858 127.692 57.8479 127.692C58.36 127.692 58.691 127.418 58.691 126.993C58.6919 126.635 58.473 126.436 57.9369 126.308L57.936 126.308V126.308ZM59.8496 125.882C59.6276 125.882 59.4455 125.968 59.2954 126.144V125.946C59.2954 125.93 59.2825 125.918 59.2666 125.918H58.8725C58.8565 125.918 58.8437 125.93 58.8437 125.946V128.143C58.8437 128.159 58.8565 128.171 58.8725 128.171H59.2666C59.2825 128.171 59.2954 128.159 59.2954 128.143V127.45C59.4456 127.615 59.6277 127.696 59.8496 127.696C60.2621 127.696 60.6796 127.384 60.6796 126.789C60.6802 126.194 60.2626 125.882 59.8501 125.882L59.8496 125.882ZM60.2213 126.789C60.2213 127.092 60.0309 127.304 59.7583 127.304C59.4888 127.304 59.2855 127.082 59.2855 126.789C59.2855 126.496 59.4888 126.274 59.7583 126.274C60.0265 126.274 60.2213 126.491 60.2213 126.789L60.2213 126.789V126.789ZM61.7498 125.882C61.2186 125.882 60.8025 126.283 60.8025 126.795C60.8025 127.302 61.2158 127.699 61.7433 127.699C62.2764 127.699 62.6938 127.299 62.6938 126.789C62.6938 126.281 62.2792 125.882 61.7498 125.882L61.7498 125.882V125.882ZM61.7498 127.307C61.4673 127.307 61.2543 127.084 61.2543 126.789C61.2543 126.492 61.4599 126.277 61.7433 126.277C62.0277 126.277 62.2421 126.5 62.2421 126.795C62.2421 127.092 62.0351 127.307 61.7499 127.307H61.7498V127.307ZM63.8282 125.918H63.3944V125.483C63.3944 125.467 63.3816 125.454 63.3657 125.454H62.9716C62.9556 125.454 62.9427 125.467 62.9427 125.483V125.918H62.7532C62.7373 125.918 62.7245 125.93 62.7245 125.946V126.278C62.7245 126.294 62.7373 126.306 62.7532 126.306H62.9427V127.166C62.9427 127.513 63.119 127.689 63.4667 127.689C63.6081 127.689 63.7254 127.661 63.8359 127.599C63.8449 127.594 63.8504 127.585 63.8504 127.575V127.258C63.8504 127.249 63.8453 127.239 63.8367 127.234C63.8282 127.229 63.8175 127.229 63.8087 127.233C63.7327 127.27 63.6594 127.288 63.5773 127.288C63.4509 127.288 63.3944 127.231 63.3944 127.105V126.307H63.8282C63.8441 126.307 63.8569 126.294 63.8569 126.278V125.946C63.8575 125.93 63.8447 125.918 63.8286 125.918L63.8282 125.918V125.918ZM65.3393 125.919V125.866C65.3393 125.709 65.4008 125.639 65.5386 125.639C65.6207 125.639 65.6867 125.655 65.7606 125.679C65.7697 125.682 65.7792 125.68 65.7866 125.675C65.7942 125.67 65.7985 125.661 65.7985 125.652V125.326C65.7985 125.314 65.7904 125.303 65.7781 125.299C65.7001 125.276 65.6001 125.253 65.4505 125.253C65.0865 125.253 64.8941 125.454 64.8941 125.834V125.916H64.7047C64.6888 125.916 64.6758 125.929 64.6758 125.944V126.278C64.6758 126.294 64.6888 126.306 64.7047 126.306H64.8941V127.632C64.8941 127.648 64.9069 127.66 64.9228 127.66H65.317C65.3329 127.66 65.3459 127.648 65.3459 127.632V126.306H65.7138L66.2776 127.632C66.2136 127.771 66.1506 127.799 66.0647 127.799C65.9953 127.799 65.9222 127.779 65.8474 127.738C65.8404 127.735 65.832 127.734 65.8244 127.736C65.8169 127.739 65.8106 127.744 65.8074 127.752L65.6738 128.039C65.6674 128.053 65.6729 128.068 65.6862 128.076C65.8257 128.15 65.9516 128.181 66.1072 128.181C66.3982 128.181 66.5591 128.048 66.7009 127.691L67.3846 125.958C67.3881 125.949 67.387 125.939 67.3816 125.932C67.3762 125.924 67.3674 125.919 67.3579 125.919H66.9476C66.9353 125.919 66.9243 125.927 66.9203 125.938L66.4999 127.116L66.0396 125.938C66.0354 125.927 66.0246 125.919 66.0126 125.919H65.3392L65.3393 125.919V125.919ZM64.4632 125.918H64.0691C64.0531 125.918 64.0402 125.93 64.0402 125.946V127.632C64.0402 127.648 64.0531 127.66 64.0691 127.66H64.4632C64.4791 127.66 64.4921 127.648 64.4921 127.632V125.946C64.4921 125.942 64.4913 125.939 64.4899 125.935C64.4884 125.932 64.4863 125.929 64.4836 125.926C64.4809 125.923 64.4777 125.921 64.4742 125.92C64.4707 125.918 64.467 125.918 64.4632 125.918L64.4632 125.918ZM64.2684 125.15C64.1122 125.15 63.9855 125.274 63.9855 125.427C63.9855 125.58 64.1123 125.704 64.2684 125.704C64.4244 125.704 64.551 125.58 64.551 125.427C64.551 125.274 64.4244 125.15 64.2685 125.15H64.2684V125.15ZM67.7212 126.46C67.5652 126.46 67.4438 126.337 67.4438 126.188C67.4438 126.039 67.5668 125.914 67.7226 125.914C67.8786 125.914 68 126.037 68 126.186C68 126.335 67.877 126.46 67.7211 126.46H67.7212V126.46ZM67.7227 125.941C67.5806 125.941 67.4731 126.052 67.4731 126.188C67.4731 126.323 67.5799 126.433 67.7213 126.433C67.8633 126.433 67.9709 126.322 67.9709 126.186C67.9709 126.051 67.8641 125.941 67.7228 125.941H67.7227V125.941ZM67.7842 126.214L67.8626 126.322H67.7965L67.7259 126.223H67.6651V126.322H67.6098V126.036H67.7396C67.8072 126.036 67.8517 126.07 67.8517 126.127C67.852 126.174 67.8243 126.203 67.7844 126.214H67.7842V126.214ZM67.7373 126.085H67.6651V126.176H67.7373C67.7734 126.176 67.7949 126.158 67.7949 126.13C67.7949 126.101 67.7733 126.085 67.7373 126.085H67.7373V126.085Z" fill="#07100E"/>
</svg>
