<svg id="evrsZDzph1k1" xmlns="http://www.w3.org/2000/svg" xmlns:xlink="http://www.w3.org/1999/xlink" viewBox="-12 0 165 255" shape-rendering="geometricPrecision" text-rendering="geometricPrecision"><g id="evrsZDzph1k2" transform="translate(-.747314 0.245407)"><path d="M22.4812,169.637c-3.7797,3.228-10.4583,3.779-13.68637,0-3.22813-3.78-1.78338-10.46,1.99627-13.688s7.0443-.364,10.2724,3.416s5.1973,7.043,1.4177,10.272Z" fill="#fec29d"/><path d="M52.9463,116l15.301,17.915-38.7807,33.122-15.301-17.915L52.9463,116Z" fill="#9fd0de"/><g mask="url(#evrsZDzph1k7)"><path d="M52.9463,116l2.2812-1.948c-1.076-1.26-2.9697-1.409-4.2296-.333L52.9463,116Zm15.301,17.915l1.9483,2.281c1.2599-1.076,1.4089-2.969.3329-4.229l-2.2812,1.948ZM29.4666,167.037l-2.2812,1.948c1.076,1.26,2.9696,1.409,4.2295.333l-1.9483-2.281Zm-15.301-17.915l-1.9484-2.281c-1.2598,1.076-1.4089,2.969-.3328,4.229l2.2812-1.948Zm6.3672,18.233c-1.3271,1.134-3.2678,1.859-5.1828,1.911-1.9123.051-3.405-.56-4.274-1.578l-4.56239,3.897c2.35916,2.762,5.81979,3.764,8.99879,3.678c3.1762-.086,6.4646-1.251,8.9171-3.345l-3.8967-4.563Zm-9.4568.333c-.8806-1.031-1.28045-2.663-.9529-4.602.3272-1.937,1.3233-3.751,2.6163-4.856l-3.89665-4.562c-2.48666,2.124-4.10271,5.263-4.63578,8.418-.53268,3.153-.04082,6.75,2.30664,9.499l4.56239-3.897Zm1.6634-9.458c.6121-.522,1.013-.641,1.22-.67.2007-.029.4776-.011.9122.191c1.0318.478,2.281,1.654,3.9107,3.562l4.5625-3.896c-1.5984-1.872-3.5957-4.018-5.9481-5.109-1.2575-.584-2.7073-.913-4.2826-.689-1.5691.224-2.9936.958-4.27135,2.049l3.89665,4.562Zm6.0429,3.083c1.6445,1.926,2.4765,3.199,2.7077,4.123.089.355.0615.567-.0027.744-.0752.208-.2916.609-.9545,1.175l3.8967,4.563c1.227-1.048,2.1817-2.265,2.6995-3.696.5287-1.46.5159-2.906.1815-4.243-.6155-2.46-2.3821-4.708-3.9657-6.562l-4.5625,3.896Zm31.8828-43.365l15.301,17.916l4.5624-3.897-15.301-17.915-4.5624,3.896Zm15.6338,13.686L27.5182,164.756l3.8967,4.562l38.7807-33.122-3.8967-4.562ZM31.7478,165.089l-15.301-17.915-4.5624,3.896l15.301,17.915l4.5624-3.896ZM16.1139,151.403l38.7807-33.122-3.8967-4.562-38.7807,33.122l3.8967,4.562Z" fill="#07100e"/><mask id="evrsZDzph1k7" mask-type="luminance"><rect width="76.5139" height="71.5208" rx="0" ry="0" transform="translate(-3.75128 111.77)" fill="#fff"/><path d="M22.4812,169.637c-3.7797,3.228-10.4583,3.779-13.68637,0-3.22813-3.78-1.78338-10.46,1.99627-13.688s7.0443-.364,10.2724,3.416s5.1973,7.043,1.4177,10.272Z" transform="translate(.000001 0)"/><path d="M52.9463,116l15.301,17.915-38.7807,33.122-15.301-17.915L52.9463,116Z"/></mask></g></g><g id="evrsZDzph1k11" transform="translate(-.017505 0.022109)"><path d="M140.74,157.615c3.78,3.228,5.924,10.605,2.695,14.385-3.228,3.78-10.605,2.53-14.385-.698s-1.111-5.794,2.117-9.573c3.228-3.78,5.793-7.343,9.573-4.114Z" fill="#fec29d"/><path d="M82.998,135.915L98.299,118l38.781,33.122-15.301,17.915-38.781-33.122Z" fill="#9fd0de"/><g mask="url(#evrsZDzph1k16)"><path d="M82.998,135.915l-2.2812-1.948c-1.076,1.26-.927,3.153.3329,4.229l1.9483-2.281ZM98.299,118l1.948-2.281c-1.2595-1.076-3.1531-.927-4.2292.333L98.299,118Zm38.781,33.122l2.281,1.948c1.076-1.26.927-3.153-.333-4.229l-1.948,2.281Zm-15.301,17.915l-1.949,2.281c1.26,1.076,3.154.927,4.23-.333l-2.281-1.948Zm17.013-9.141c1.314,1.122,2.507,3.158,2.995,5.356.499,2.243.125,3.913-.633,4.8l4.563,3.896c2.47-2.892,2.638-6.801,1.927-9.999-.721-3.243-2.49-6.51-4.956-8.616l-3.896,4.563Zm2.362,10.156c-.733.859-2.225,1.437-4.437,1.239-2.168-.194-4.351-1.103-5.719-2.27l-3.896,4.562c2.412,2.06,5.807,3.391,9.08,3.684c3.229.289,7.04-.398,9.535-3.319l-4.563-3.896Zm-10.156-1.031c-.685-.585-.79-.9-.797-.924-.003-.008-.003-.006-.002-.018.002-.022.011-.101.072-.257.138-.35.442-.853,1.032-1.606.594-.756,1.282-1.528,2.145-2.539l-4.563-3.897c-.75.879-1.606,1.845-2.303,2.734-.7.892-1.432,1.94-1.893,3.108-.487,1.237-.699,2.688-.225,4.233.454,1.482,1.433,2.699,2.638,3.728l3.896-4.562Zm2.45-5.344c.86-1.007,1.548-1.846,2.248-2.603.695-.752,1.227-1.225,1.654-1.495.2-.126.335-.181.414-.205.069-.021.102-.019.118-.018.008,0,.294.014.91.54l3.896-4.563c-1.274-1.088-2.726-1.84-4.363-1.961-1.646-.122-3.057.425-4.182,1.136-1.09.689-2.041,1.615-2.853,2.493-.807.872-1.65,1.896-2.405,2.779l4.563,3.897ZM85.2793,137.863L100.58,119.948l-4.5622-3.896-15.301,17.915l4.5625,3.896Zm11.0714-17.582l38.7803,33.122l3.897-4.562-38.781-33.122-3.8963,4.562Zm38.4483,28.892l-15.301,17.916l4.562,3.896l15.301-17.915-4.562-3.897Zm-11.072,17.583L84.9464,133.634l-3.8967,4.562L119.83,171.318l3.897-4.562Z" fill="#07100e"/><mask id="evrsZDzph1k16" mask-type="luminance"><rect width="77.2743" height="72.1702" rx="0" ry="0" transform="translate(78.7685 113.436)" fill="#fff"/><path d="M140.74,157.615c3.78,3.228,5.924,10.605,2.695,14.385-3.228,3.78-10.605,2.53-14.385-.698s-1.111-5.794,2.117-9.573c3.228-3.78,5.793-7.343,9.573-4.114Z"/><path d="M82.998,135.915L98.299,118l38.781,33.122-15.301,17.915-38.781-33.122Z"/></mask></g></g><path d="M68.8037,110.5h12c16.5686,0,30.0003,13.431,30.0003,30v33.5c0,.828-.672,1.5-1.5,1.5h-69.0003c-.8284,0-1.5-.672-1.5-1.5v-33.5c0-16.569,13.4315-30,30-30Z" fill="#9fd0de" stroke="#07100e" stroke-width="3"/><g id="evrsZDzph1k21" transform="translate(0 0.000001)"><circle r="14.5" transform="translate(117.305 78)" fill="#f8c399" stroke="#07100e" stroke-width="3"/><path d="M118.305,77.5h4.5m0,0l1.5-3m-1.5,3l1.5,2.5" fill="none" stroke="#07100e" stroke-width="2" stroke-linecap="round" stroke-linejoin="round"/><circle r="14.5" transform="translate(29.3047 77)" fill="#f8c399" stroke="#07100e" stroke-width="3"/><path d="M28.3047,75.5h-4.5m0,0l-1.5,3m1.5-3l-1.5-2.5" fill="none" stroke="#07100e" stroke-width="2" stroke-linecap="round" stroke-linejoin="round"/><path d="M30.3037,40.5c-.7975,0-1.4556.624-1.4979,1.4204l-1.8066,34c-.0028.0516-.0028.1032-.0002.1548l.3289,6.5537C28.1958,99.9233,42.4709,113.5,59.787,113.5h26.8947c16.8213,0,30.6753-13.217,31.4653-30.02l.348-7.4095c.003-.0484.003-.0968,0-.1451l-1.693-34c-.04-.7984-.699-1.4254-1.498-1.4254h-85.0003Z" fill="#fac498" stroke="#07100e" stroke-width="3" stroke-linejoin="round"/><rect width="15" height="4" rx="2" ry="2" transform="translate(81.3037 59)" fill="#07100e"/><rect width="15" height="4" rx="2" ry="2" transform="translate(48.3037 59)" fill="#07100e"/><path d="M74.6846,45.0989c10.4,24.4,22.3333,12.8334,27.0004,4c7.093,20.6035,13.051,17.4385,20.312,10.4011c3.189-8,12.62-15.9165,5.5-34-3.861-9.8065-17.069-12.3101-26.991-13.5676-3.6527-.4629-7.1298-.5517-9.9999-.4171-1.3044-2.12825-3.0153-3.84015-5.0002-5.20245-9.5804-6.575127-25.5446-5.00665-33-2.79766-11.5,3-32.7213,18.38371-30.3213,45.58371s17.3333,11.3334,24.5,0c10.4,23.6,23,7.1667,28-4Z" fill="#0c211d" stroke="#0c211d" stroke-width="3" stroke-linecap="round" stroke-linejoin="round"/><circle r="10" transform="translate(50.3047 92)" fill="#fea086"/><circle r="5.5" transform="translate(57.8047 72.5)" fill="#07100e"/><circle r="5.5" transform="translate(86.8047 72.5)" fill="#07100e"/><circle r="9.5" transform="translate(92.8047 92.5)" fill="#fea086"/><path d="M66.8047,93l-.75,1.75m-.75,1.75l.75-1.75m0,0c2.5833,1.75,8.45,4.2,11.25,0" fill="none" stroke="#07100e" stroke-linecap="round" stroke-linejoin="round"/></g><rect width="30" height="62" rx="0" ry="0" transform="translate(42.8037 175.5)" fill="#164f6d" stroke="#07100e" stroke-width="3" stroke-linejoin="round"/><rect width="30" height="62" rx="0" ry="0" transform="translate(77.8037 175.5)" fill="#164f6d" stroke="#07100e" stroke-width="3" stroke-linejoin="round"/><path d="M70.3037,236h-24.8823c-8.3493,0-15.1177,6.768-15.1177,15.118c0,1.592,1.2905,2.882,2.8824,2.882h37.1176c1.6569,0,3-1.343,3-3v-12c0-1.657-1.3431-3-3-3Z" fill="#fff" stroke="#07100e" stroke-width="2" stroke-linejoin="round"/><path d="M32.3037,247h-1v1v2c0,1.657,1.3432,3,3,3h36.5c.8284,0,1.5-.672,1.5-1.5v-3.5-1h-1-39Z" fill="#2e6e6e" stroke="#07100e" stroke-width="2"/><path d="M71.8037,242v-.5h-.5-7c-2.4853,0-4.5,2.015-4.5,4.5h.5v.5h11h.5v-.5-4Z" fill="#2e6e6e" stroke="#07100e"/><path d="M47.8037,239.5h-9.95c.2317-1.141,1.2405-2,2.45-2h7.5v2Z" fill="#d9d9d9" stroke="#07100e"/><path d="M44.8037,241.5h-9.95c.2317-1.141,1.2405-2,2.45-2h7.5v2Z" fill="#d9d9d9" stroke="#07100e"/><path d="M80.3037,236h24.8823c8.349,0,15.118,6.768,15.118,15.118c0,1.592-1.291,2.882-2.883,2.882h-37.1173c-1.6568,0-3-1.343-3-3v-12c0-1.657,1.3432-3,3-3Z" fill="#fff" stroke="#07100e" stroke-width="2" stroke-linejoin="round"/><path d="M118.304,247h1v1v2c0,1.657-1.343,3-3,3h-36.5003c-.8284,0-1.5-.672-1.5-1.5v-3.5-1h1h39.0003Z" fill="#2e6e6e" stroke="#07100e" stroke-width="2"/><path d="M78.8037,242v-.5h.5h7c2.4853,0,4.5,2.015,4.5,4.5h-.5v.5h-11-.5v-.5-4Z" fill="#2e6e6e" stroke="#07100e"/><path d="M102.804,239.5h9.95c-.232-1.141-1.241-2-2.45-2h-7.5v2Z" fill="#d9d9d9" stroke="#07100e"/><path d="M105.804,241.5h9.95c-.232-1.141-1.241-2-2.45-2h-7.5v2Z" fill="#d9d9d9" stroke="#07100e"/><rect width="29" height="14" rx="2" ry="2" transform="translate(43.3037 222)" fill="#366d94" stroke="#07100e" stroke-width="2" stroke-linejoin="round"/><rect width="11" height="6" rx="0" ry="0" transform="translate(43.8037 229.5)" fill="#276e6a" stroke="#07100e" stroke-linejoin="round"/><rect width="29" height="14" rx="2" ry="2" transform="matrix(-1 0 0 1 107.304 222)" fill="#366d94" stroke="#07100e" stroke-width="2" stroke-linejoin="round"/><rect width="11" height="6" rx="0" ry="0" transform="matrix(-1 0 0 1 106.804 229.5)" fill="#276e6a" stroke="#07100e" stroke-linejoin="round"/><path d="M99.9501,175.95c-.1936-.197-.5102-.2-.7071-.006v0c-.197.193-.1997.51-.0062.707l7.2502,7.378c.194.197.51.199.707.006v0c.197-.194.2-.51.006-.707l-7.2499-7.378Z" fill="#d9d9d9"/><g mask="url(#evrsZDzph1k54)"><path d="M99.5996,175.593l-.7132.701.7132-.701Zm7.2384,8.792l.713-.701-.713.701Zm.356-.35c.591-.581.599-1.53.019-2.121l-5.849-5.952c-.58-.591-1.5301-.599-2.121-.018-.0946.093-.1484.219-.1495.352-.0012.133.0504.26.1433.355v0l-.3504-.357l7.6006,7.735c.093.094.22.148.352.149.133.001.261-.05.355-.143v0Zm-7.951-8.091c-.5909.58-.5992,1.53-.0185,2.121l5.8485,5.951c.581.591,1.53.6,2.121.019.095-.093.149-.22.15-.352.001-.133-.051-.261-.144-.355l-7.2499-7.378-.3505-.357.3505.357c-.093-.095-.2197-.148-.3523-.15-.1326-.001-.2602.051-.3548.144v0Z" fill="#07100e"/><mask id="evrsZDzph1k54" mask-type="luminance"><rect width="10.5507" height="10.6617" rx="0" ry="0" transform="translate(98.1731 174.892)" fill="#fff"/><path d="M99.9501,175.95c-.1936-.197-.5102-.2-.7071-.006v0c-.197.193-.1997.51-.0062.707l7.2502,7.378c.194.197.51.199.707.006v0c.197-.194.2-.51.006-.707l-7.2499-7.378Z" transform="translate(.000001 0)"/></mask></g><path d="M51.6173,177.057c.1936-.197.1908-.513-.0062-.707v0c-.1969-.193-.5135-.191-.707.006l-7.2503,7.378c-.1936.197-.1908.514.0061.707v0c.197.194.5136.191.7071-.006l7.2503-7.378Z" fill="#d9d9d9"/><g mask="url(#evrsZDzph1k60)"><path d="M51.9678,176.701L51.2545,176l.7133.701Zm-8.6645,7.39l.7133.701-.7133-.701Zm.3566.35c.5909.581,1.5406.573,2.1213-.018l5.8485-5.952c.5806-.59.5723-1.54-.0186-2.121-.0945-.093-.2222-.144-.3548-.143s-.2593.055-.3522.149v0l.3504-.356-7.6007,7.734c-.093.095-.1446.223-.1434.355.0012.133.0549.26.1495.352v0Zm7.9512-8.091c-.5908-.58-1.5405-.572-2.1212.019l-5.8485,5.951c-.5806.591-.5723,1.541.0185,2.121.0946.093.2222.145.3548.144.1327-.001.2594-.055.3523-.15l7.2503-7.378.3505-.356-.3505.356c.093-.094.1445-.222.1434-.355-.0012-.132-.055-.259-.1496-.352v0Z" fill="#07100e"/><mask id="evrsZDzph1k60" mask-type="luminance"><rect width="10.5507" height="10.6617" rx="0" ry="0" transform="translate(42.1304 175.299)" fill="#fff"/><path d="M51.6173,177.057c.1936-.197.1908-.513-.0062-.707v0c-.1969-.193-.5135-.191-.707.006l-7.2503,7.378c-.1936.197-.1908.514.0061.707v0c.197.194.5136.191.7071-.006l7.2503-7.378Z" transform="translate(.000001 0)"/></mask></g><path d="M53.5494,124C52.1414,124,51,125.119,51,126.5s1.1414,2.5,2.5494,2.5s2.5493-1.119,2.5493-2.5-1.1413-2.5-2.5494-2.5h.0001v0Zm1.1691,3.606c-.0458.073-.1436.096-.2185.052-.5987-.359-1.3522-.44-2.2396-.242-.0855.02-.1707-.033-.1902-.117s.0338-.167.1195-.186c.9711-.218,1.8041-.124,2.4761.278.0749.045.0986.141.0527.215v0v0Zm.312-.681c-.0576.092-.18.121-.2734.064-.6851-.413-1.7298-.532-2.5403-.291-.1052.031-.2162-.027-.2481-.13-.0316-.103.0276-.212.1326-.243.9258-.276,2.0768-.142,2.8637.332.0935.057.123.177.0655.268v0Zm.0268-.709c-.8218-.478-2.1773-.522-2.9617-.289-.126.038-.2592-.032-.2974-.156-.0382-.123.0329-.254.1589-.291.9006-.268,2.3976-.217,3.3436.334.1133.066.1504.209.0833.32-.067.112-.2137.148-.3267.082v0v0Zm2.8787.092c-.4402-.103-.5186-.175-.5186-.327c0-.143.1377-.24.3425-.24.1985,0,.3953.073.6016.224.0063.005.0141.007.0218.005.0077-.001.0145-.005.019-.011l.215-.297c.0088-.012.0064-.029-.0055-.039-.2456-.193-.5222-.287-.8454-.287-.4753,0-.8072.28-.8072.68c0,.429.2863.581.7812.698.4212.096.4923.175.4923.318c0,.158-.1438.256-.3751.256-.2569,0-.4665-.085-.7009-.284-.0058-.005-.0138-.007-.0212-.007-.0077.001-.0148.004-.0198.01l-.241.281c-.0101.012-.0088.029.0029.039.2728.239.6082.365.9703.365.5121,0,.8431-.274.8431-.699.0009-.358-.218-.557-.7541-.685h-.0009v0Zm1.9136-.426c-.222,0-.4041.086-.5542.262v-.198c0-.016-.0129-.028-.0288-.028h-.3941c-.016,0-.0288.012-.0288.028v2.197c0,.016.0128.028.0288.028h.3941c.0159,0,.0288-.012.0288-.028v-.693c.1502.165.3323.246.5542.246.4125,0,.83-.312.83-.907.0006-.595-.417-.907-.8295-.907h-.0005Zm.3717.907c0,.303-.1904.515-.463.515-.2695,0-.4728-.222-.4728-.515s.2033-.515.4728-.515c.2682,0,.463.217.463.515v0v0Zm1.5285-.907c-.5312,0-.9473.401-.9473.913c0,.507.4133.904.9408.904.5331,0,.9505-.4.9505-.91c0-.508-.4146-.907-.944-.907v0v0Zm0,1.425c-.2825,0-.4955-.223-.4955-.518c0-.297.2056-.512.489-.512.2844,0,.4988.223.4988.518c0,.297-.207.512-.4922.512h-.0001v0Zm2.0784-1.389h-.4338v-.435c0-.016-.0128-.029-.0287-.029h-.3941c-.016,0-.0289.013-.0289.029v.435h-.1895c-.0159,0-.0287.012-.0287.028v.332c0,.016.0128.028.0287.028h.1895v.86c0,.347.1763.523.524.523.1414,0,.2587-.028.3692-.09.009-.005.0145-.014.0145-.024v-.317c0-.009-.0051-.019-.0137-.024-.0085-.005-.0192-.005-.028-.001-.076.037-.1493.055-.2314.055-.1264,0-.1829-.057-.1829-.183v-.798h.4338c.0159,0,.0287-.013.0287-.029v-.332c.0006-.016-.0122-.028-.0283-.028h-.0004v0Zm1.5111.001v-.053c0-.157.0615-.227.1993-.227.0821,0,.1481.016.222.04.0091.003.0186.001.026-.004.0076-.005.0119-.014.0119-.023v-.326c0-.012-.0081-.023-.0204-.027-.078-.023-.178-.046-.3276-.046-.364,0-.5564.201-.5564.581v.082h-.1894c-.0159,0-.0289.013-.0289.028v.334c0,.016.013.028.0289.028h.1894v1.326c0,.016.0128.028.0287.028h.3942c.0159,0,.0289-.012.0289-.028v-1.326h.3679l.5638,1.326c-.064.139-.127.167-.2129.167-.0694,0-.1425-.02-.2173-.061-.007-.003-.0154-.004-.023-.002-.0075.003-.0138.008-.017.016l-.1336.287c-.0064.014-.0009.029.0124.037.1395.074.2654.105.421.105.291,0,.4519-.133.5937-.49l.6837-1.733c.0035-.009.0024-.019-.003-.026-.0054-.008-.0142-.013-.0237-.013h-.4103c-.0123,0-.0233.008-.0273.019l-.4204,1.178-.4603-1.178c-.0042-.011-.015-.019-.027-.019h-.6734.0001v0Zm-.8761-.001h-.3941c-.016,0-.0289.012-.0289.028v1.686c0,.016.0129.028.0289.028h.3941c.0159,0,.0289-.012.0289-.028v-1.686c0-.004-.0008-.007-.0022-.011-.0015-.003-.0036-.006-.0063-.009s-.0059-.005-.0094-.006c-.0035-.002-.0072-.002-.011-.002v0Zm-.1948-.768c-.1562,0-.2829.124-.2829.277s.1268.277.2829.277.2826-.124.2826-.277-.1266-.277-.2825-.277h-.0001v0Zm3.4528,1.31c-.156,0-.2774-.123-.2774-.272s.123-.274.2788-.274c.156,0,.2774.123.2774.272s-.123.274-.2789.274h.0001v0Zm.0015-.519c-.1421,0-.2496.111-.2496.247c0,.135.1068.245.2482.245.142,0,.2496-.111.2496-.247c0-.135-.1068-.245-.2481-.245h-.0001v0Zm.0615.273l.0784.108h-.0661l-.0706-.099h-.0608v.099h-.0553v-.286h.1298c.0676,0,.1121.034.1121.091.0003.047-.0274.076-.0673.087h-.0002v0Zm-.0469-.129h-.0722v.091h.0722c.0361,0,.0576-.018.0576-.046c0-.029-.0216-.045-.0576-.045v0v0Z" fill="#07100e"/><script><![CDATA[!function(t,n){"object"==typeof exports&&"undefined"!=typeof module?module.exports=n():"function"==typeof define&&define.amd?define(n):((t="undefined"!=typeof globalThis?globalThis:t||self).__SVGATOR_PLAYER__=t.__SVGATOR_PLAYER__||{},t.__SVGATOR_PLAYER__["5c7f360c"]=n())}(this,(function(){"use strict";function t(t,n){var e=Object.keys(t);if(Object.getOwnPropertySymbols){var r=Object.getOwnPropertySymbols(t);n&&(r=r.filter((function(n){return Object.getOwnPropertyDescriptor(t,n).enumerable}))),e.push.apply(e,r)}return e}function n(n){for(var e=1;e<arguments.length;e++){var r=null!=arguments[e]?arguments[e]:{};e%2?t(Object(r),!0).forEach((function(t){o(n,t,r[t])})):Object.getOwnPropertyDescriptors?Object.defineProperties(n,Object.getOwnPropertyDescriptors(r)):t(Object(r)).forEach((function(t){Object.defineProperty(n,t,Object.getOwnPropertyDescriptor(r,t))}))}return n}function e(t){return(e="function"==typeof Symbol&&"symbol"==typeof Symbol.iterator?function(t){return typeof t}:function(t){return t&&"function"==typeof Symbol&&t.constructor===Symbol&&t!==Symbol.prototype?"symbol":typeof t})(t)}function r(t,n){if(!(t instanceof n))throw new TypeError("Cannot call a class as a function")}function i(t,n){for(var e=0;e<n.length;e++){var r=n[e];r.enumerable=r.enumerable||!1,r.configurable=!0,"value"in r&&(r.writable=!0),Object.defineProperty(t,r.key,r)}}function u(t,n,e){return n&&i(t.prototype,n),e&&i(t,e),t}function o(t,n,e){return n in t?Object.defineProperty(t,n,{value:e,enumerable:!0,configurable:!0,writable:!0}):t[n]=e,t}function a(t){return(a=Object.setPrototypeOf?Object.getPrototypeOf:function(t){return t.__proto__||Object.getPrototypeOf(t)})(t)}function l(t,n){return(l=Object.setPrototypeOf||function(t,n){return t.__proto__=n,t})(t,n)}function s(){if("undefined"==typeof Reflect||!Reflect.construct)return!1;if(Reflect.construct.sham)return!1;if("function"==typeof Proxy)return!0;try{return Boolean.prototype.valueOf.call(Reflect.construct(Boolean,[],(function(){}))),!0}catch(t){return!1}}function f(t,n,e){return(f=s()?Reflect.construct:function(t,n,e){var r=[null];r.push.apply(r,n);var i=new(Function.bind.apply(t,r));return e&&l(i,e.prototype),i}).apply(null,arguments)}function c(t,n){if(n&&("object"==typeof n||"function"==typeof n))return n;if(void 0!==n)throw new TypeError("Derived constructors may only return object or undefined");return function(t){if(void 0===t)throw new ReferenceError("this hasn't been initialised - super() hasn't been called");return t}(t)}function h(t,n,e){return(h="undefined"!=typeof Reflect&&Reflect.get?Reflect.get:function(t,n,e){var r=function(t,n){for(;!Object.prototype.hasOwnProperty.call(t,n)&&null!==(t=a(t)););return t}(t,n);if(r){var i=Object.getOwnPropertyDescriptor(r,n);return i.get?i.get.call(e):i.value}})(t,n,e||t)}function v(t){return function(t){if(Array.isArray(t))return y(t)}(t)||function(t){if("undefined"!=typeof Symbol&&null!=t[Symbol.iterator]||null!=t["@@iterator"])return Array.from(t)}(t)||function(t,n){if(!t)return;if("string"==typeof t)return y(t,n);var e=Object.prototype.toString.call(t).slice(8,-1);"Object"===e&&t.constructor&&(e=t.constructor.name);if("Map"===e||"Set"===e)return Array.from(t);if("Arguments"===e||/^(?:Ui|I)nt(?:8|16|32)(?:Clamped)?Array$/.test(e))return y(t,n)}(t)||function(){throw new TypeError("Invalid attempt to spread non-iterable instance.\nIn order to be iterable, non-array objects must have a [Symbol.iterator]() method.")}()}function y(t,n){(null==n||n>t.length)&&(n=t.length);for(var e=0,r=new Array(n);e<n;e++)r[e]=t[e];return r}Number.isInteger||(Number.isInteger=function(t){return"number"==typeof t&&isFinite(t)&&Math.floor(t)===t}),Number.EPSILON||(Number.EPSILON=2220446049250313e-31);var g=d(Math.pow(10,-6));function d(t){var n=arguments.length>1&&void 0!==arguments[1]?arguments[1]:6;if(Number.isInteger(t))return t;var e=Math.pow(10,n);return Math.round((+t+Number.EPSILON)*e)/e}function p(t,n){var e=arguments.length>2&&void 0!==arguments[2]?arguments[2]:g;return Math.abs(t-n)<e}var m=Math.PI/180;function b(t){return t}function w(t,n,e){var r=1-e;return 3*e*r*(t*r+n*e)+e*e*e}function x(){var t=arguments.length>0&&void 0!==arguments[0]?arguments[0]:0,n=arguments.length>1&&void 0!==arguments[1]?arguments[1]:0,e=arguments.length>2&&void 0!==arguments[2]?arguments[2]:1,r=arguments.length>3&&void 0!==arguments[3]?arguments[3]:1;return t<0||t>1||e<0||e>1?null:p(t,n)&&p(e,r)?b:function(i){if(i<=0)return t>0?i*n/t:0===n&&e>0?i*r/e:0;if(i>=1)return e<1?1+(i-1)*(r-1)/(e-1):1===e&&t<1?1+(i-1)*(n-1)/(t-1):1;for(var u,o=0,a=1;o<a;){var l=w(t,e,u=(o+a)/2);if(p(i,l))break;l<i?o=u:a=u}return w(n,r,u)}}function A(){return 1}function k(t){return 1===t?1:0}function _(){var t=arguments.length>0&&void 0!==arguments[0]?arguments[0]:1,n=arguments.length>1&&void 0!==arguments[1]?arguments[1]:0;if(1===t){if(0===n)return k;if(1===n)return A}var e=1/t;return function(t){return t>=1?1:(t+=n*e)-t%e}}var S=Math.sin,O=Math.cos,j=Math.acos,M=Math.asin,P=Math.tan,E=Math.atan2,I=Math.PI/180,R=180/Math.PI,F=Math.sqrt,N=function(){function t(){var n=arguments.length>0&&void 0!==arguments[0]?arguments[0]:1,e=arguments.length>1&&void 0!==arguments[1]?arguments[1]:0,i=arguments.length>2&&void 0!==arguments[2]?arguments[2]:0,u=arguments.length>3&&void 0!==arguments[3]?arguments[3]:1,o=arguments.length>4&&void 0!==arguments[4]?arguments[4]:0,a=arguments.length>5&&void 0!==arguments[5]?arguments[5]:0;r(this,t),this.m=[n,e,i,u,o,a],this.i=null,this.w=null,this.s=null}return u(t,[{key:"determinant",get:function(){var t=this.m;return t[0]*t[3]-t[1]*t[2]}},{key:"isIdentity",get:function(){if(null===this.i){var t=this.m;this.i=1===t[0]&&0===t[1]&&0===t[2]&&1===t[3]&&0===t[4]&&0===t[5]}return this.i}},{key:"point",value:function(t,n){var e=this.m;return{x:e[0]*t+e[2]*n+e[4],y:e[1]*t+e[3]*n+e[5]}}},{key:"translateSelf",value:function(){var t=arguments.length>0&&void 0!==arguments[0]?arguments[0]:0,n=arguments.length>1&&void 0!==arguments[1]?arguments[1]:0;if(!t&&!n)return this;var e=this.m;return e[4]+=e[0]*t+e[2]*n,e[5]+=e[1]*t+e[3]*n,this.w=this.s=this.i=null,this}},{key:"rotateSelf",value:function(){var t=arguments.length>0&&void 0!==arguments[0]?arguments[0]:0;if(t%=360){var n=S(t*=I),e=O(t),r=this.m,i=r[0],u=r[1];r[0]=i*e+r[2]*n,r[1]=u*e+r[3]*n,r[2]=r[2]*e-i*n,r[3]=r[3]*e-u*n,this.w=this.s=this.i=null}return this}},{key:"scaleSelf",value:function(){var t=arguments.length>0&&void 0!==arguments[0]?arguments[0]:1,n=arguments.length>1&&void 0!==arguments[1]?arguments[1]:1;if(1!==t||1!==n){var e=this.m;e[0]*=t,e[1]*=t,e[2]*=n,e[3]*=n,this.w=this.s=this.i=null}return this}},{key:"skewSelf",value:function(t,n){if(n%=360,(t%=360)||n){var e=this.m,r=e[0],i=e[1],u=e[2],o=e[3];t&&(t=P(t*I),e[2]+=r*t,e[3]+=i*t),n&&(n=P(n*I),e[0]+=u*n,e[1]+=o*n),this.w=this.s=this.i=null}return this}},{key:"resetSelf",value:function(){var t=arguments.length>0&&void 0!==arguments[0]?arguments[0]:1,n=arguments.length>1&&void 0!==arguments[1]?arguments[1]:0,e=arguments.length>2&&void 0!==arguments[2]?arguments[2]:0,r=arguments.length>3&&void 0!==arguments[3]?arguments[3]:1,i=arguments.length>4&&void 0!==arguments[4]?arguments[4]:0,u=arguments.length>5&&void 0!==arguments[5]?arguments[5]:0,o=this.m;return o[0]=t,o[1]=n,o[2]=e,o[3]=r,o[4]=i,o[5]=u,this.w=this.s=this.i=null,this}},{key:"recomposeSelf",value:function(){var t=arguments.length>0&&void 0!==arguments[0]?arguments[0]:null,n=arguments.length>1&&void 0!==arguments[1]?arguments[1]:null,e=arguments.length>2&&void 0!==arguments[2]?arguments[2]:null,r=arguments.length>3&&void 0!==arguments[3]?arguments[3]:null,i=arguments.length>4&&void 0!==arguments[4]?arguments[4]:null;return this.isIdentity||this.resetSelf(),t&&(t.x||t.y)&&this.translateSelf(t.x,t.y),n&&this.rotateSelf(n),e&&(e.x&&this.skewSelf(e.x,0),e.y&&this.skewSelf(0,e.y)),!r||1===r.x&&1===r.y||this.scaleSelf(r.x,r.y),i&&(i.x||i.y)&&this.translateSelf(i.x,i.y),this}},{key:"decompose",value:function(){var t=arguments.length>0&&void 0!==arguments[0]?arguments[0]:0,n=arguments.length>1&&void 0!==arguments[1]?arguments[1]:0,e=this.m,r=e[0]*e[0]+e[1]*e[1],i=[[e[0],e[1]],[e[2],e[3]]],u=F(r);if(0===u)return{origin:{x:d(e[4]),y:d(e[5])},translate:{x:d(t),y:d(n)},scale:{x:0,y:0},skew:{x:0,y:0},rotate:0};i[0][0]/=u,i[0][1]/=u;var o=e[0]*e[3]-e[1]*e[2]<0;o&&(u=-u);var a=i[0][0]*i[1][0]+i[0][1]*i[1][1];i[1][0]-=i[0][0]*a,i[1][1]-=i[0][1]*a;var l=F(i[1][0]*i[1][0]+i[1][1]*i[1][1]);if(0===l)return{origin:{x:d(e[4]),y:d(e[5])},translate:{x:d(t),y:d(n)},scale:{x:d(u),y:0},skew:{x:0,y:0},rotate:0};i[1][0]/=l,i[1][1]/=l,a/=l;var s=0;return i[1][1]<0?(s=j(i[1][1])*R,i[0][1]<0&&(s=360-s)):s=M(i[0][1])*R,o&&(s=-s),a=E(a,F(i[0][0]*i[0][0]+i[0][1]*i[0][1]))*R,o&&(a=-a),{origin:{x:d(e[4]),y:d(e[5])},translate:{x:d(t),y:d(n)},scale:{x:d(u),y:d(l)},skew:{x:d(a),y:0},rotate:d(s)}}},{key:"clone",value:function(){var t=this.m;return new this.constructor(t[0],t[1],t[2],t[3],t[4],t[5])}},{key:"toString",value:function(){var t=arguments.length>0&&void 0!==arguments[0]?arguments[0]:" ";if(null===this.s){var n=this.m.map((function(t){return d(t)}));1===n[0]&&0===n[1]&&0===n[2]&&1===n[3]?this.s="translate("+n[4]+t+n[5]+")":this.s="matrix("+n.join(t)+")"}return this.s}}],[{key:"create",value:function(t){return t?Array.isArray(t)?f(this,v(t)):t instanceof this?t.clone():(new this).recomposeSelf(t.origin,t.rotate,t.skew,t.scale,t.translate):new this}}]),t}();function T(t,n,e){return t>=.5?e:n}function q(t,n,e){return 0===t||n===e?n:t*(e-n)+n}function B(t,n,e){var r=q(t,n,e);return r<=0?0:r}function L(t,n,e){var r=q(t,n,e);return r<=0?0:r>=1?1:r}function C(t,n,e){return 0===t?n:1===t?e:{x:q(t,n.x,e.x),y:q(t,n.y,e.y)}}function D(t,n,e){var r=function(t,n,e){return Math.round(q(t,n,e))}(t,n,e);return r<=0?0:r>=255?255:r}function z(t,n,e){return 0===t?n:1===t?e:{r:D(t,n.r,e.r),g:D(t,n.g,e.g),b:D(t,n.b,e.b),a:q(t,null==n.a?1:n.a,null==e.a?1:e.a)}}function V(t,n){for(var e=[],r=0;r<t;r++)e.push(n);return e}function G(t,n){if(--n<=0)return t;var e=(t=Object.assign([],t)).length;do{for(var r=0;r<e;r++)t.push(t[r])}while(--n>0);return t}var Y,$=function(){function t(n){r(this,t),this.list=n,this.length=n.length}return u(t,[{key:"setAttribute",value:function(t,n){for(var e=this.list,r=0;r<this.length;r++)e[r].setAttribute(t,n)}},{key:"removeAttribute",value:function(t){for(var n=this.list,e=0;e<this.length;e++)n[e].removeAttribute(t)}},{key:"style",value:function(t,n){for(var e=this.list,r=0;r<this.length;r++)e[r].style[t]=n}}]),t}(),U=/-./g,Q=function(t,n){return n.toUpperCase()};function H(t){return"function"==typeof t?t:T}function J(t){return t?"function"==typeof t?t:Array.isArray(t)?function(t){var n=arguments.length>1&&void 0!==arguments[1]?arguments[1]:b;if(!Array.isArray(t))return n;switch(t.length){case 1:return _(t[0])||n;case 2:return _(t[0],t[1])||n;case 4:return x(t[0],t[1],t[2],t[3])||n}return n}(t,null):function(t,n){var e=arguments.length>2&&void 0!==arguments[2]?arguments[2]:b;switch(t){case"linear":return b;case"steps":return _(n.steps||1,n.jump||0)||e;case"bezier":case"cubic-bezier":return x(n.x1||0,n.y1||0,n.x2||0,n.y2||0)||e}return e}(t.type,t.value,null):null}function Z(t,n,e){var r=arguments.length>3&&void 0!==arguments[3]&&arguments[3],i=n.length-1;if(t<=n[0].t)return r?[0,0,n[0].v]:n[0].v;if(t>=n[i].t)return r?[i,1,n[i].v]:n[i].v;var u,o=n[0],a=null;for(u=1;u<=i;u++){if(!(t>n[u].t)){a=n[u];break}o=n[u]}return null==a?r?[i,1,n[i].v]:n[i].v:o.t===a.t?r?[u,1,a.v]:a.v:(t=(t-o.t)/(a.t-o.t),o.e&&(t=o.e(t)),r?[u,t,e(t,o.v,a.v)]:e(t,o.v,a.v))}function K(t,n){var e=arguments.length>2&&void 0!==arguments[2]?arguments[2]:null;return t&&t.length?"function"!=typeof n?null:("function"!=typeof e&&(e=null),function(r){var i=Z(r,t,n);return null!=i&&e&&(i=e(i)),i}):null}function W(t,n){return t.t-n.t}function X(t,n,r,i,u){var o,a="@"===r[0],l="#"===r[0],s=Y[r],f=T;switch(a?(o=r.substr(1),r=o.replace(U,Q)):l&&(r=r.substr(1)),e(s)){case"function":if(f=s(i,u,Z,J,r,a,n,t),l)return f;break;case"string":f=K(i,H(s));break;case"object":if((f=K(i,H(s.i),s.f))&&"function"==typeof s.u)return s.u(n,f,r,a,t)}return f?function(t,n,e){if(arguments.length>3&&void 0!==arguments[3]&&arguments[3])return t instanceof $?function(r){return t.style(n,e(r))}:function(r){return t.style[n]=e(r)};if(Array.isArray(n)){var r=n.length;return function(i){var u=e(i);if(null==u)for(var o=0;o<r;o++)t[o].removeAttribute(n);else for(var a=0;a<r;a++)t[a].setAttribute(n,u)}}return function(r){var i=e(r);null==i?t.removeAttribute(n):t.setAttribute(n,i)}}(n,r,f,a):null}function tt(t,n,r,i){if(!i||"object"!==e(i))return null;var u=null,o=null;return Array.isArray(i)?o=function(t){if(!t||!t.length)return null;for(var n=0;n<t.length;n++)t[n].e&&(t[n].e=J(t[n].e));return t.sort(W)}(i):(o=i.keys,u=i.data||null),o?X(t,n,r,o,u):null}function nt(t,n,e){if(!e)return null;var r=[];for(var i in e)if(e.hasOwnProperty(i)){var u=tt(t,n,i,e[i]);u&&r.push(u)}return r.length?r:null}function et(t,n){if(!n.settings.duration||n.settings.duration<0)return null;var e,r,i,u,o,a=function(t,n){if(!n)return null;var e=[];if(Array.isArray(n))for(var r=n.length,i=0;i<r;i++){var u=n[i];if(2===u.length){var o=null;if("string"==typeof u[0])o=t.getElementById(u[0]);else if(Array.isArray(u[0])){o=[];for(var a=0;a<u[0].length;a++)if("string"==typeof u[0][a]){var l=t.getElementById(u[0][a]);l&&o.push(l)}o=o.length?1===o.length?o[0]:new $(o):null}if(o){var s=nt(t,o,u[1]);s&&(e=e.concat(s))}}}else for(var f in n)if(n.hasOwnProperty(f)){var c=t.getElementById(f);if(c){var h=nt(t,c,n[f]);h&&(e=e.concat(h))}}return e.length?e:null}(t,n.elements);return a?(e=a,r=n.settings,i=r.duration,u=e.length,o=null,function(t,n){var a=r.iterations||1/0,l=(r.alternate&&a%2==0)^r.direction>0?i:0,s=t%i,f=1+(t-s)/i;n*=r.direction,r.alternate&&f%2==0&&(n=-n);var c=!1;if(f>a)s=l,c=!0,-1===r.fill&&(s=r.direction>0?0:i);else if(n<0&&(s=i-s),s===o)return!1;o=s;for(var h=0;h<u;h++)e[h](s);return c}):null}function rt(t,n){if(Y=n,!t||!t.root||!Array.isArray(t.animations))return null;var e=function(t){for(var n=document.getElementsByTagName("svg"),e=0;e<n.length;e++)if(n[e].id===t.root&&!n[e].svgatorAnimation)return n[e].svgatorAnimation=!0,n[e];return null}(t);if(!e)return null;var r=t.animations.map((function(t){return et(e,t)})).filter((function(t){return!!t}));return r.length?{svg:e,animations:r,animationSettings:t.animationSettings,options:t.options||void 0}:null}function it(t){return+("0x"+(t.replace(/[^0-9a-fA-F]+/g,"")||27))}function ut(t,n,e){return!t||!e||n>t.length?t:t.substring(0,n)+ut(t.substring(n+1),e,e)}function ot(t){var n=arguments.length>1&&void 0!==arguments[1]?arguments[1]:27;return!t||t%n?t%n:ot(t/n,n)}function at(t,n,e){if(t&&t.length){var r=it(e),i=it(n),u=ot(r)+5,o=ut(t,ot(r,5),u);return o=o.replace(/\x7c$/g,"==").replace(/\x2f$/g,"="),o=function(t,n,e){var r=+("0x"+t.substring(0,4));t=t.substring(4);for(var i=n%r+e%27,u=[],o=0;o<t.length;o+=2)if("|"!==t[o]){var a=+("0x"+t[o]+t[o+1])-i;u.push(a)}else{var l=+("0x"+t.substring(o+1,o+1+4))-i;o+=3,u.push(l)}return String.fromCharCode.apply(String,u)}(o=(o=atob(o)).replace(/[\x41-\x5A]/g,""),i,r),o=JSON.parse(o)}}var lt=[{key:"alternate",def:!1},{key:"fill",def:1},{key:"iterations",def:0},{key:"direction",def:1},{key:"speed",def:1},{key:"fps",def:100}],st=function(){function t(n,e){var i=this,u=arguments.length>2&&void 0!==arguments[2]?arguments[2]:null;r(this,t),this._id=0,this._running=!1,this._rollingBack=!1,this._animations=n,this._settings=e,(!u||u<"2022-05-02")&&delete this._settings.speed,lt.forEach((function(t){i._settings[t.key]=i._settings[t.key]||t.def})),this.duration=e.duration,this.offset=e.offset||0,this.rollbackStartOffset=0}return u(t,[{key:"alternate",get:function(){return this._settings.alternate}},{key:"fill",get:function(){return this._settings.fill}},{key:"iterations",get:function(){return this._settings.iterations}},{key:"direction",get:function(){return this._settings.direction}},{key:"speed",get:function(){return this._settings.speed}},{key:"fps",get:function(){return this._settings.fps}},{key:"maxFiniteDuration",get:function(){return this.iterations>0?this.iterations*this.duration:this.duration}},{key:"_apply",value:function(t){for(var n=arguments.length>1&&void 0!==arguments[1]?arguments[1]:{},e=this._animations,r=e.length,i=0,u=0;u<r;u++)n[u]?i++:(n[u]=e[u](t,1),n[u]&&i++);return i}},{key:"_rollback",value:function(t){var n=this,e=1/0,r=null;this.rollbackStartOffset=t,this._rollingBack=!0,this._running=!0;this._id=window.requestAnimationFrame((function i(u){if(n._rollingBack){null==r&&(r=u);var o=Math.round(t-(u-r)*n.speed);if(o>n.duration&&e!==1/0){var a=!!n.alternate&&o/n.duration%2>1,l=o%n.duration;o=(l+=a?n.duration:0)||n.duration}var s=(n.fps?1e3/n.fps:0)*n.speed,f=Math.max(0,o);f<e-s&&(n.offset=f,e=f,n._apply(f));var c=n.iterations>0&&-1===n.fill&&o>=n.maxFiniteDuration;(o<=0||n.offset<o||c)&&n.stop(),n._id=window.requestAnimationFrame(i)}}))}},{key:"_start",value:function(){var t=this,n=arguments.length>0&&void 0!==arguments[0]?arguments[0]:0,e=-1/0,r=null,i={};this._running=!0;var u=function u(o){null==r&&(r=o);var a=Math.round((o-r)*t.speed+n),l=(t.fps?1e3/t.fps:0)*t.speed;if(a>e+l&&!t._rollingBack&&(t.offset=a,e=a,t._apply(a,i)===t._animations.length))return void t.pause(!0);t._id=window.requestAnimationFrame(u)};this._id=window.requestAnimationFrame(u)}},{key:"_pause",value:function(){this._id&&window.cancelAnimationFrame(this._id),this._running=!1}},{key:"play",value:function(){if(!this._running)return this._rollingBack?this._rollback(this.offset):this._start(this.offset)}},{key:"stop",value:function(){this._pause(),this.offset=0,this.rollbackStartOffset=0,this._rollingBack=!1,this._apply(0)}},{key:"reachedToEnd",value:function(){return this.iterations>0&&this.offset>=this.iterations*this.duration}},{key:"restart",value:function(){var t=arguments.length>0&&void 0!==arguments[0]&&arguments[0];this.stop(t),this.play(t)}},{key:"pause",value:function(){this._pause()}},{key:"reverse",value:function(){this.direction=-this.direction}}],[{key:"build",value:function(t,n){delete t.animationSettings,t.options=at(t.options,t.root,"5c7f360c"),t.animations.map((function(n){n.settings=at(n.s,t.root,"5c7f360c"),delete n.s,t.animationSettings||(t.animationSettings=n.settings)}));var e=t.version;if(!(t=rt(t,n)))return null;var r=t.options||{},i=new this(t.animations,t.animationSettings,e);return{el:t.svg,options:r,player:i}}},{key:"push",value:function(t){return this.build(t)}},{key:"init",value:function(){var t=this,n=window.__SVGATOR_PLAYER__&&window.__SVGATOR_PLAYER__["5c7f360c"];Array.isArray(n)&&n.splice(0).forEach((function(n){return t.build(n)}))}}]),t}();function ft(t){return d(t)+""}function ct(t){var n=arguments.length>1&&void 0!==arguments[1]?arguments[1]:" ";return t&&t.length?t.map(ft).join(n):""}function ht(t){if(!t)return"transparent";if(null==t.a||t.a>=1){var n=function(t){return 1===(t=parseInt(t).toString(16)).length?"0"+t:t},e=function(t){return t.charAt(0)===t.charAt(1)},r=n(t.r),i=n(t.g),u=n(t.b);return e(r)&&e(i)&&e(u)&&(r=r.charAt(0),i=i.charAt(0),u=u.charAt(0)),"#"+r+i+u}return"rgba("+t.r+","+t.g+","+t.b+","+t.a+")"}function vt(t){return t?"url(#"+t+")":"none"}!function(){for(var t=0,n=["ms","moz","webkit","o"],e=0;e<n.length&&!window.requestAnimationFrame;++e)window.requestAnimationFrame=window[n[e]+"RequestAnimationFrame"],window.cancelAnimationFrame=window[n[e]+"CancelAnimationFrame"]||window[n[e]+"CancelRequestAnimationFrame"];window.requestAnimationFrame||(window.requestAnimationFrame=function(n){var e=Date.now(),r=Math.max(0,16-(e-t)),i=window.setTimeout((function(){n(e+r)}),r);return t=e+r,i},window.cancelAnimationFrame=window.clearTimeout)}();var yt={f:null,i:function(t,n,e){return 0===t?n:1===t?e:{x:B(t,n.x,e.x),y:B(t,n.y,e.y)}},u:function(t,n){return function(e){var r=n(e);t.setAttribute("rx",ft(r.x)),t.setAttribute("ry",ft(r.y))}}},gt={f:null,i:function(t,n,e){return 0===t?n:1===t?e:{width:B(t,n.width,e.width),height:B(t,n.height,e.height)}},u:function(t,n){return function(e){var r=n(e);t.setAttribute("width",ft(r.width)),t.setAttribute("height",ft(r.height))}}};Object.freeze({M:2,L:2,Z:0,H:1,V:1,C:6,Q:4,T:2,S:4,A:7});var dt={},pt=null;function mt(t){var n=function(){if(pt)return pt;if("object"!==("undefined"==typeof document?"undefined":e(document))||!document.createElementNS)return{};var t=document.createElementNS("http://www.w3.org/2000/svg","svg");return t&&t.style?(t.style.position="absolute",t.style.opacity="0.01",t.style.zIndex="-9999",t.style.left="-9999px",t.style.width="1px",t.style.height="1px",pt={svg:t}):{}}().svg;if(!n)return function(t){return null};var r=document.createElementNS(n.namespaceURI,"path");r.setAttributeNS(null,"d",t),r.setAttributeNS(null,"fill","none"),r.setAttributeNS(null,"stroke","none"),n.appendChild(r);var i=r.getTotalLength();return function(t){var n=r.getPointAtLength(i*t);return{x:n.x,y:n.y}}}function bt(t){return dt[t]?dt[t]:dt[t]=mt(t)}function wt(t,n,e,r){if(!t||!r)return!1;var i=["M",t.x,t.y];if(n&&e&&(i.push("C"),i.push(n.x),i.push(n.y),i.push(e.x),i.push(e.y)),n?!e:e){var u=n||e;i.push("Q"),i.push(u.x),i.push(u.y)}return n||e||i.push("L"),i.push(r.x),i.push(r.y),i.join(" ")}function xt(t,n,e,r){var i=arguments.length>4&&void 0!==arguments[4]?arguments[4]:1,u=wt(t,n,e,r),o=bt(u);try{return o(i)}catch(t){return null}}function At(t,n,e){return t+(n-t)*e}function kt(t,n,e){var r=arguments.length>3&&void 0!==arguments[3]&&arguments[3],i={x:At(t.x,n.x,e),y:At(t.y,n.y,e)};return r&&(i.a=_t(t,n)),i}function _t(t,n){return Math.atan2(n.y-t.y,n.x-t.x)}function St(t,n,e,r){var i=1-r;return i*i*t+2*i*r*n+r*r*e}function Ot(t,n,e,r){return 2*(1-r)*(n-t)+2*r*(e-n)}function jt(t,n,e,r){var i=arguments.length>4&&void 0!==arguments[4]&&arguments[4],u=xt(t,n,null,e,r);return u||(u={x:St(t.x,n.x,e.x,r),y:St(t.y,n.y,e.y,r)}),i&&(u.a=Mt(t,n,e,r)),u}function Mt(t,n,e,r){return Math.atan2(Ot(t.y,n.y,e.y,r),Ot(t.x,n.x,e.x,r))}function Pt(t,n,e,r,i){var u=i*i;return i*u*(r-t+3*(n-e))+3*u*(t+e-2*n)+3*i*(n-t)+t}function Et(t,n,e,r,i){var u=1-i;return 3*(u*u*(n-t)+2*u*i*(e-n)+i*i*(r-e))}function It(t,n,e,r,i){var u=arguments.length>5&&void 0!==arguments[5]&&arguments[5],o=xt(t,n,e,r,i);return o||(o={x:Pt(t.x,n.x,e.x,r.x,i),y:Pt(t.y,n.y,e.y,r.y,i)}),u&&(o.a=Rt(t,n,e,r,i)),o}function Rt(t,n,e,r,i){return Math.atan2(Et(t.y,n.y,e.y,r.y,i),Et(t.x,n.x,e.x,r.x,i))}function Ft(t,n,e){var r=arguments.length>3&&void 0!==arguments[3]&&arguments[3];if(Tt(n)){if(qt(e))return jt(n,e.start,e,t,r)}else if(Tt(e)){if(Bt(n))return jt(n,n.end,e,t,r)}else{if(Bt(n))return qt(e)?It(n,n.end,e.start,e,t,r):jt(n,n.end,e,t,r);if(qt(e))return jt(n,e.start,e,t,r)}return kt(n,e,t,r)}function Nt(t,n,e){var r=Ft(t,n,e,!0);return r.a=function(t){return arguments.length>1&&void 0!==arguments[1]&&arguments[1]?t+Math.PI:t}(r.a)/m,r}function Tt(t){return!t.type||"corner"===t.type}function qt(t){return null!=t.start&&!Tt(t)}function Bt(t){return null!=t.end&&!Tt(t)}var Lt=new N;var Ct={f:ft,i:q},Dt={f:ft,i:L};function zt(t,n,e){return t.map((function(t){return function(t,n,e){var r=t.v;if(!r||"g"!==r.t||r.s||!r.v||!r.r)return t;var i=e.getElementById(r.r),u=i&&i.querySelectorAll("stop")||[];return r.s=r.v.map((function(t,n){var e=u[n]&&u[n].getAttribute("offset");return{c:t,o:e=d(parseInt(e)/100)}})),delete r.v,t}(t,0,e)}))}var Vt={gt:"gradientTransform",c:{x:"cx",y:"cy"},rd:"r",f:{x:"x1",y:"y1"},to:{x:"x2",y:"y2"}};function Gt(t,n,r,i,u,o,a,l){return zt(t,0,l),n=function(t,n,e){for(var r,i,u,o=t.length-1,a={},l=0;l<=o;l++)(r=t[l]).e&&(r.e=n(r.e)),r.v&&"g"===(i=r.v).t&&i.r&&(u=e.getElementById(i.r))&&(a[i.r]={e:u,s:u.querySelectorAll("stop")});return a}(t,i,l),function(i){var u=r(i,t,Yt);if(!u)return"none";if("c"===u.t)return ht(u.v);if("g"===u.t){if(!n[u.r])return vt(u.r);var o=n[u.r];return function(t,n){for(var e=t.s,r=e.length;r<n.length;r++){var i=e[e.length-1].cloneNode();i.id=Qt(i.id),t.e.appendChild(i),e=t.s=t.e.querySelectorAll("stop")}for(var u=0,o=e.length,a=n.length-1;u<o;u++)e[u].setAttribute("stop-color",ht(n[Math.min(u,a)].c)),e[u].setAttribute("offset",n[Math.min(u,a)].o)}(o,u.s),Object.keys(Vt).forEach((function(t){if(void 0!==u[t])if("object"!==e(Vt[t])){var n,r="gt"===t?(n=u[t],Array.isArray(n)?"matrix("+n.join(" ")+")":""):u[t],i=Vt[t];o.e.setAttribute(i,r)}else Object.keys(Vt[t]).forEach((function(n){if(void 0!==u[t][n]){var e=u[t][n],r=Vt[t][n];o.e.setAttribute(r,e)}}))})),vt(u.r)}return"none"}}function Yt(t,e,r){if(0===t)return e;if(1===t)return r;if(e&&r){var i=e.t;if(i===r.t)switch(e.t){case"c":return{t:i,v:z(t,e.v,r.v)};case"g":if(e.r===r.r){var u={t:i,s:$t(t,e.s,r.s),r:e.r};return e.gt&&r.gt&&(u.gt=function(t,n,e){var r=n.length;if(r!==e.length)return T(t,n,e);for(var i=new Array(r),u=0;u<r;u++)i[u]=q(t,n[u],e[u]);return i}(t,e.gt,r.gt)),e.c?(u.c=C(t,e.c,r.c),u.rd=B(t,e.rd,r.rd)):e.f&&(u.f=C(t,e.f,r.f),u.to=C(t,e.to,r.to)),u}}if("c"===e.t&&"g"===r.t||"c"===r.t&&"g"===e.t){var o="c"===e.t?e:r,a="g"===e.t?n({},e):n({},r),l=a.s.map((function(t){return{c:o.v,o:t.o}}));return a.s="c"===e.t?$t(t,l,a.s):$t(t,a.s,l),a}}return T(t,e,r)}function $t(t,n,e){if(n.length===e.length)return n.map((function(n,r){return Ut(t,n,e[r])}));for(var r=Math.max(n.length,e.length),i=[],u=0;u<r;u++){var o=Ut(t,n[Math.min(u,n.length-1)],e[Math.min(u,e.length-1)]);i.push(o)}return i}function Ut(t,n,e){return{o:L(t,n.o,e.o||0),c:z(t,n.c,e.c||{})}}function Qt(t){return t.replace(/-fill-([0-9]+)$/,(function(t,n){return"-fill-"+(+n+1)}))}var Ht={fill:Gt,"fill-opacity":Dt,stroke:Gt,"stroke-opacity":Dt,"stroke-width":Ct,"stroke-dashoffset":{f:ft,i:q},"stroke-dasharray":{f:function(t){var n=arguments.length>1&&void 0!==arguments[1]?arguments[1]:" ";return t&&t.length>0&&(t=t.map((function(t){return d(t,4)}))),ct(t,n)},i:function(t,n,e){var r,i,u,o=n.length,a=e.length;if(o!==a)if(0===o)n=V(o=a,0);else if(0===a)a=o,e=V(o,0);else{var l=(u=(r=o)*(i=a)/function(t,n){for(var e;n;)e=n,n=t%n,t=e;return t||1}(r,i))<0?-u:u;n=G(n,Math.floor(l/o)),e=G(e,Math.floor(l/a)),o=a=l}for(var s=[],f=0;f<o;f++)s.push(d(B(t,n[f],e[f])));return s}},opacity:Dt,transform:function(t,n,r,i){if(!(t=function(t,n){if(!t||"object"!==e(t))return null;var r=!1;for(var i in t)t.hasOwnProperty(i)&&(t[i]&&t[i].length?(t[i].forEach((function(t){t.e&&(t.e=n(t.e))})),r=!0):delete t[i]);return r?t:null}(t,i)))return null;var u=function(e,i,u){var o=arguments.length>3&&void 0!==arguments[3]?arguments[3]:null;return t[e]?r(i,t[e],u):n&&n[e]?n[e]:o};return n&&n.a&&t.o?function(n){var e=r(n,t.o,Nt);return Lt.recomposeSelf(e,u("r",n,q,0)+e.a,u("k",n,C),u("s",n,C),u("t",n,C)).toString()}:function(t){return Lt.recomposeSelf(u("o",t,Ft,null),u("r",t,q,0),u("k",t,C),u("s",t,C),u("t",t,C)).toString()}},r:Ct,"#size":gt,"#radius":yt,_:function(t,n){if(Array.isArray(t))for(var e=0;e<t.length;e++)this[t[e]]=n;else this[t]=n}},Jt=function(t){!function(t,n){if("function"!=typeof n&&null!==n)throw new TypeError("Super expression must either be null or a function");t.prototype=Object.create(n&&n.prototype,{constructor:{value:t,writable:!0,configurable:!0}}),n&&l(t,n)}(o,t);var n,e,i=(n=o,e=s(),function(){var t,r=a(n);if(e){var i=a(this).constructor;t=Reflect.construct(r,arguments,i)}else t=r.apply(this,arguments);return c(this,t)});function o(){return r(this,o),i.apply(this,arguments)}return u(o,null,[{key:"build",value:function(t){var n=h(a(o),"build",this).call(this,t,Ht);if(!n)return null;n.el,n.options,function(t,n,e){t.play()}(n.player)}}]),o}(st);return Jt.init(),Jt}));
(function(s,i,o,w,a,b){w[o]=w[o]||{};w[o][s]=w[o][s]||[];w[o][s].push(i);})('5c7f360c',{"root":"evrsZDzph1k1","version":"2022-05-04","animations":[{"elements":{"evrsZDzph1k2":{"transform":{"data":{"o":{"x":51.557385,"y":129.245407,"type":"corner"},"t":{"x":-52.304699,"y":-129}},"keys":{"r":[{"t":100,"v":0},{"t":200,"v":47.975097},{"t":300,"v":80.602117},{"t":400,"v":37.314425},{"t":500,"v":4.338212},{"t":670,"v":47.975097},{"t":770,"v":80.602117},{"t":870,"v":37.314425},{"t":970,"v":4.338212}]}}},"evrsZDzph1k11":{"transform":{"data":{"o":{"x":96.3037,"y":127.5,"type":"corner"},"t":{"x":-96.321205,"y":-127.477891}},"keys":{"r":[{"t":0,"v":0},{"t":400,"v":7.327714},{"t":710,"v":0},{"t":980,"v":7.327714}]}}},"evrsZDzph1k21":{"transform":{"data":{"o":{"x":73.304846,"y":57.551757,"type":"corner"},"t":{"x":-73.304846,"y":-57.551756}},"keys":{"r":[{"t":30,"v":0},{"t":130,"v":-3.14816},{"t":270,"v":3.003035},{"t":840,"v":0}]}}}},"s":"MNDA1Mzk3WTNlODA5MTEhlN2Q5MDg1OGI4YTNIlNTY0ZDRjNGM0YzQ4KM2U4MDg1OGU4MTdmOWTA4NUg4YjhhM2U1NjMRkNDgzZTg1OTA4MThQlN2Q5MDg1OGI4YThmHM2U1NjRkNDgzZTgyOUDU4ODg4M2U1NjRkNDDgzZTdkSjg4OTA4MThHlOGE3ZEQ5MDgxM2VCTNTY4Mko3ZDg4OGY4MMTQ4M2U4ZjhjODFCODXE4ME4zZTU2NGQ5OQ|V"}],"options":"MLDAxMDg4MmY4MEM4MTNZlN2Y4MTJmNDcyZjcO5N2M2ZTcxMmY4YQ|"},'__SVGATOR_PLAYER__',window)]]></script></svg>